HIERARCHY
ROOT root
{
	OFFSET 0.000000 0.000000 0.000000
	CHANNELS 6 Xposition Yposition Zposition Zrotation Yrotation Xrotation
	JOINT lhip
	{
		OFFSET 0.058581 -0.082280 -0.017664
		CHANNELS 3 Zrotation Yrotation Xrotation
		JOINT lknee
		{
			OFFSET 0.043451 -0.386469 0.008037
			CHANNELS 3 Zrotation Yrotation Xrotation
			JOINT lankle
			{
				OFFSET -0.014790 -0.426874 -0.037428
				CHANNELS 3 Zrotation Yrotation Xrotation
				JOINT ltoe
				{
					OFFSET 0.041054 -0.060286 0.122042
					CHANNELS 3 Zrotation Yrotation Xrotation
					End Site
					{
						OFFSET 0.000000 0.000000 0.000000
					}
				}
			}
		}
	}
	JOINT rhip
	{
		OFFSET -0.060310 -0.090513 -0.013543
		CHANNELS 3 Zrotation Yrotation Xrotation
		JOINT rknee
		{
			OFFSET -0.043257 -0.383688 -0.004843
			CHANNELS 3 Zrotation Yrotation Xrotation
			JOINT rankle
			{
				OFFSET 0.019056 -0.420046 -0.034562
				CHANNELS 3 Zrotation Yrotation Xrotation
				JOINT rtoe
				{
					OFFSET -0.034840 -0.062106 0.130323
					CHANNELS 3 Zrotation Yrotation Xrotation
					End Site
					{
						OFFSET 0.000000 0.000000 0.000000
					}
				}
			}
		}
	}
	JOINT lowerback
	{
		OFFSET 0.004439 0.124404 -0.038385
		CHANNELS 3 Zrotation Yrotation Xrotation
		JOINT upperback
		{
			OFFSET 0.004488 0.137956 0.026820
			CHANNELS 3 Zrotation Yrotation Xrotation
			JOINT chest
			{
				OFFSET -0.002265 0.056032 0.002855
				CHANNELS 3 Zrotation Yrotation Xrotation
				JOINT lowerneck
				{
					OFFSET -0.013390 0.211636 -0.033468
					CHANNELS 3 Zrotation Yrotation Xrotation
					JOINT upperneck
					{
						OFFSET 0.010113 0.088937 0.050410
						CHANNELS 3 Zrotation Yrotation Xrotation
						End Site
						{
							OFFSET 0.000000 0.000000 0.000000
						}
					}
				}
				JOINT lclavicle
				{
					OFFSET 0.071702 0.114000 -0.018898
					CHANNELS 3 Zrotation Yrotation Xrotation
					JOINT lshoulder
					{
						OFFSET 0.122921 0.045205 -0.019046
						CHANNELS 3 Zrotation Yrotation Xrotation
						JOINT lelbow
						{
							OFFSET 0.255332 -0.015649 -0.022946
							CHANNELS 3 Zrotation Yrotation Xrotation
							JOINT lwrist
							{
								OFFSET 0.265709 0.012698 -0.007375
								CHANNELS 3 Zrotation Yrotation Xrotation
								End Site
								{
									OFFSET 0.000000 0.000000 0.000000
								}
							}
						}
					}
				}
				JOINT rclavicle
				{
					OFFSET -0.082954 0.112472 -0.023707
					CHANNELS 3 Zrotation Yrotation Xrotation
					JOINT rshoulder
					{
						OFFSET -0.113228 0.046853 -0.008472
						CHANNELS 3 Zrotation Yrotation Xrotation
						JOINT relbow
						{
							OFFSET -0.260127 -0.014369 -0.031269
							CHANNELS 3 Zrotation Yrotation Xrotation
							JOINT rwrist
							{
								OFFSET -0.269108 0.006794 -0.006027
								CHANNELS 3 Zrotation Yrotation Xrotation
								End Site
								{
									OFFSET 0.000000 0.000000 0.000000
								}
							}
						}
					}
				}
			}
		}
	}
}
MOTION
Frames: 5
Frame Time: 0.033333
0.453962 0.245144 0.741748 100.748664 -2.386995 177.813940 4.734882 -3.774363 -15.370727 -10.180507 -24.196497 12.195527 -9.844638 5.493753 -17.671494 0.000000 -0.000000 0.000000 0.311322 -3.211785 -17.908509 6.483739 -1.842452 19.466136 8.506250 -12.650635 -0.034651 0.000000 -0.000000 0.000000 -4.413595 2.633922 -1.564570 8.886103 -3.381311 -1.899057 6.034620 4.994848 -5.521168 -3.865179 -2.810358 37.766528 10.056868 -1.817305 -2.156746 49.764718 -2.450317 -21.683087 25.751095 -52.403779 -40.422471 10.651917 -6.929707 8.731917 -38.114543 0.488410 -2.267688 -49.694435 6.677330 -26.910527 -38.163555 42.272809 -55.674579 -15.287665 14.322425 -23.707457 17.537806 5.097973 -24.246357 
0.453361 0.243789 0.741760 100.601991 -2.209143 177.595961 4.292355 -4.748578 -15.438774 -12.236949 -24.459011 16.803265 -8.358739 5.857762 -17.235422 0.000000 -0.000000 0.000000 0.004691 -3.707871 -18.895537 8.226144 -3.308379 26.196329 8.100994 -12.222260 0.704000 0.000000 -0.000000 0.000000 -4.765776 2.596849 -1.215455 8.898066 -2.904452 -3.126508 6.463062 5.048898 -4.561526 -3.757382 -3.246970 38.259541 9.992974 -2.424033 -2.016495 50.926781 -2.549590 -21.672068 24.925984 -52.178469 -40.603617 10.084290 -5.248351 11.575870 -37.304482 1.173145 0.654052 -50.172670 7.134458 -27.468470 -37.922398 41.893078 -56.782499 -14.374758 13.636838 -22.963813 17.640282 5.361094 -21.753988 
0.452572 0.242211 0.741515 100.356090 -1.849368 177.594599 3.853819 -5.310433 -15.302312 -13.968355 -23.614324 21.264051 -7.102425 6.291911 -16.235092 0.000000 -0.000000 0.000000 -0.232799 -4.138592 -19.609658 9.426774 -4.755234 31.959272 8.035836 -11.423661 1.786405 0.000000 -0.000000 0.000000 -5.322173 2.725069 -1.461701 9.183547 -2.696759 -3.179729 6.728838 5.058828 -4.342355 -3.944272 -3.506165 39.022260 10.016323 -2.831578 -2.248330 51.554103 -2.880580 -21.653863 25.294047 -51.913617 -41.110760 9.425773 -3.448608 13.349947 -36.295984 1.697713 2.731755 -50.339548 7.371511 -27.652170 -38.372353 41.781998 -57.490401 -13.934822 12.544192 -22.399340 17.238563 5.483749 -20.262154 
0.452041 0.240959 0.740582 100.354919 -1.909463 177.549354 3.598218 -5.703184 -14.689233 -15.898544 -22.160304 26.847433 -5.954462 6.365723 -14.627298 0.000000 -0.000000 0.000000 -0.258477 -4.504119 -19.283914 10.436680 -6.503625 37.028413 7.572630 -10.631366 3.060241 0.000000 -0.000000 0.000000 -5.395234 2.446375 -1.460693 9.557068 -2.695247 -3.284121 6.785707 5.038165 -4.216360 -4.088489 -3.669761 39.543498 9.631944 -3.149281 -2.604679 52.128869 -2.887146 -21.509166 25.566802 -52.150763 -41.664068 9.409763 -1.663871 14.872508 -35.036212 2.120327 4.403129 -50.401712 7.573082 -27.690401 -38.922340 41.766684 -58.196817 -13.697254 11.533980 -21.887362 16.917926 5.490351 -18.930854 
0.451393 0.240060 0.740640 100.197491 -1.909875 177.818160 3.475259 -5.863160 -14.405064 -16.940666 -21.238431 29.680504 -5.325291 6.338464 -13.838214 0.000000 -0.000000 0.000000 -0.310049 -4.623293 -19.196822 10.858820 -7.134031 39.474298 7.339046 -10.194386 3.766907 0.000000 -0.000000 0.000000 -5.473715 2.263041 -1.527108 9.611481 -2.703739 -3.471926 6.770830 5.040759 -4.077070 -4.115754 -3.586841 39.439649 9.497858 -3.059023 -2.950508 52.407334 -2.930655 -21.548806 25.656339 -52.189706 -41.917703 9.548002 -1.001295 15.260630 -34.195814 2.188214 5.060176 -50.421169 7.633334 -27.733007 -39.155119 41.693850 -58.553216 -13.593023 11.124920 -21.648517 16.731220 5.360105 -18.173789 
